<svg width="35" height="35" viewBox="0 0 35 35" fill="none" xmlns="http://www.w3.org/2000/svg">
<path fill-rule="evenodd" clip-rule="evenodd" d="M11.3403 26.8354L14.6392 19.8947C12.1196 19.3596 9.58436 17.801 8.1505 15.9048L4.70093 23.1572C6.61794 24.7833 8.91938 26.0613 11.3403 26.8354Z" fill="#1A007F"/>
<path fill-rule="evenodd" clip-rule="evenodd" d="M25.1075 15.697C23.4502 17.7283 21.1488 19.2349 18.6863 19.822L21.9748 26.7419C24.375 25.9315 26.6193 24.6223 28.5571 22.9442L25.1075 15.697Z" fill="#4E000A"/>
<path fill-rule="evenodd" clip-rule="evenodd" d="M4.70092 23.1572L2.97613 26.7834C2.09815 28.6277 2.75793 30.898 4.56585 31.8591C6.48285 32.8773 8.84145 32.0825 9.76619 30.1447L11.3403 26.8354C8.9095 26.0517 6.65444 24.8024 4.70092 23.1572Z" fill="#1A007F"/>
<path fill-rule="evenodd" clip-rule="evenodd" d="M31.9546 7.77952C31.4668 7.68185 30.9645 7.68124 30.4765 7.77773C29.9885 7.87422 29.5242 8.06592 29.1103 8.34188C28.6963 8.61784 28.3408 8.97265 28.064 9.38603C27.7873 9.79942 27.5946 10.2633 27.4972 10.7511C27.1335 12.5694 26.2815 14.2631 25.1074 15.7021L28.5518 22.9545C31.7312 20.1959 34.0794 16.4398 34.9211 12.237C35.3315 10.1797 34.0015 8.18474 31.9546 7.77952Z" fill="#FF9396"/>
<path fill-rule="evenodd" clip-rule="evenodd" d="M18.6863 19.8218C17.9486 19.9985 17.1953 20.092 16.442 20.092C15.8549 20.092 15.2471 20.0245 14.6392 19.8946C12.1196 19.3595 9.58437 17.8009 8.15051 15.9047C7.79204 15.4319 7.50112 14.9384 7.29851 14.4345C6.51404 12.4967 4.3061 11.5616 2.36831 12.3408C0.430524 13.1253 -0.504602 15.3332 0.27467 17.271C1.16304 19.4738 2.73197 21.4947 4.70093 23.1571C6.65257 24.8023 8.90591 26.0516 11.3351 26.8353C13.0028 27.3704 14.7328 27.6665 16.4368 27.6665C18.3278 27.6665 20.1929 27.3392 21.9696 26.7418L18.6863 19.8218Z" fill="#002DC8"/>
<path fill-rule="evenodd" clip-rule="evenodd" d="M30.3702 26.7678L28.5519 22.9442L25.1075 15.6969L25.1023 15.7021C25.1023 15.7021 25.1023 15.6969 25.1075 15.6969L20.0994 5.16118C19.792 4.5148 19.3077 3.96875 18.7027 3.58626C18.0977 3.20377 17.3968 3.0005 16.681 3C15.2212 3 13.8912 3.84161 13.2626 5.16118L8.15576 15.9047C9.58962 17.801 12.1249 19.3595 14.6445 19.8946L16.2966 16.4243C16.4524 16.097 16.92 16.097 17.0758 16.4243L18.6915 19.8219L21.98 26.7418L23.5957 30.1394C23.9029 30.7871 24.3879 31.3341 24.994 31.7167C25.6001 32.0993 26.3025 32.3018 27.0193 32.3006C27.357 32.3006 27.6947 32.2539 28.0272 32.1604C30.3079 31.5317 31.3885 28.9082 30.3702 26.7678Z" fill="#FF536A"/>
</svg>
