<svg width="35" height="35" viewBox="0 0 35 35" fill="none" xmlns="http://www.w3.org/2000/svg">
<g clip-path="url(#clip0_2036_126)">
<path d="M17.4996 0.000775688C7.83486 0.000775688 0 7.83564 0 17.5003C0 26.8854 7.38851 34.5449 16.6661 34.9795C16.943 34.9926 17.2203 35 17.4998 35C21.9802 35 26.0662 33.3153 29.1623 30.5466C27.111 31.907 24.7128 32.6897 22.1497 32.6897C17.9823 32.6897 14.2501 30.6223 11.7399 27.3621C9.80484 25.078 8.55155 21.7015 8.46617 17.9123V17.0882C8.5515 13.299 9.80478 9.9219 11.7394 7.6383C14.2499 4.3781 17.9821 2.3107 22.1492 2.3107C24.7129 2.3107 27.1116 3.09345 29.163 4.45472C26.0822 1.69866 22.0208 0.0174103 17.5654 0.000865179C17.5432 0.000865179 17.5214 -1.47017e-06 17.4992 -1.47017e-06L17.4996 0.000775688Z" fill="url(#paint0_linear_2036_126)"/>
<path d="M11.7396 7.63923C13.3456 5.7434 15.4195 4.60018 17.6854 4.60018C22.78 4.60018 26.9093 10.3762 26.9093 17.5011C26.9093 24.626 22.7797 30.4019 17.6854 30.4019C15.4195 30.4019 13.3456 29.2592 11.7401 27.3633C14.2502 30.6235 17.9821 32.6909 22.1499 32.6909C24.7131 32.6909 27.1114 31.9082 29.1625 30.5478C32.7444 27.3433 34.9998 22.6857 34.9998 17.5012C34.9998 12.3172 32.7448 7.65991 29.1638 4.45584C27.112 3.09457 24.7134 2.31182 22.15 2.31182C17.9826 2.31182 14.2498 4.37904 11.7396 7.63923Z" fill="url(#paint1_linear_2036_126)"/>
</g>
<defs>
<linearGradient id="paint0_linear_2036_126" x1="14.5819" y1="0.571216" x2="14.5819" y2="34.4912" gradientUnits="userSpaceOnUse">
<stop stop-color="#FF1B2D"/>
<stop offset="0.3" stop-color="#FF1B2D"/>
<stop offset="0.614" stop-color="#FF1B2D"/>
<stop offset="1" stop-color="#A70014"/>
</linearGradient>
<linearGradient id="paint1_linear_2036_126" x1="23.3694" y1="2.57074" x2="23.3694" y2="32.5712" gradientUnits="userSpaceOnUse">
<stop stop-color="#9C0000"/>
<stop offset="0.7" stop-color="#FF4B4B"/>
<stop offset="1" stop-color="#FF4B4B"/>
</linearGradient>
<clipPath id="clip0_2036_126">
<rect width="35" height="35" fill="white"/>
</clipPath>
</defs>
</svg>
