<svg width="35" height="35" viewBox="0 0 35 35" fill="none" xmlns="http://www.w3.org/2000/svg">
<g clip-path="url(#clip0_2036_128)">
<circle cx="18" cy="18" r="15" fill="white"/>
<path d="M17.4999 35C25.1687 35 29.4303 35 32.2152 32.2152C35 29.4303 35 25.1687 35 17.4999C35 9.83122 35 5.56962 32.2152 2.7848C29.4303 0 25.1687 0 17.4999 0C9.83122 0 5.56435 0 2.78482 2.7848C0.00527419 5.56962 0 9.83122 0 17.4999C0 25.1687 -3.47695e-07 29.4303 2.78482 32.2152C5.56962 35 9.83122 35 17.4999 35Z" fill="#EF3939"/>
<path d="M28.878 11.0241C28.0332 9.50082 26.58 8.2535 25.2119 7.17507C23.8437 6.09665 22.5007 5.44691 20.822 4.981C19.1433 4.51511 17.4278 4.52373 15.6995 4.74278C13.971 4.96184 12.4839 5.35634 10.9746 6.22629C9.46525 7.09625 8.29295 8.16144 7.2373 9.54705C6.18165 10.9327 5.48023 12.3086 5.04238 13.9945C4.60453 15.6803 4.44586 17.5482 4.69388 19.2721C4.94189 20.9961 5.24311 22.6367 6.13844 24.131L6.21226 24.2574L12.3771 34.9442C13.4001 34.9724 14.5076 34.9846 15.6995 34.9811H17.4502C20.2458 35.0412 23.0428 34.9585 25.83 34.7334C28.6196 34.4276 30.6235 33.7421 32.1581 32.1975C34.4152 29.9408 34.8425 26.7143 34.9216 21.4947L28.878 11.0241Z" fill="url(#paint0_linear_2036_128)"/>
<path d="M26.7707 8.21479C24.9351 6.38049 22.597 5.1317 20.052 4.62628C17.5069 4.12087 14.8692 4.38152 12.4723 5.37529C10.0754 6.36906 8.0268 8.05133 6.58552 10.2094C5.14424 12.3676 4.375 14.9047 4.375 17.4999C4.375 20.0953 5.14424 22.6324 6.58552 24.7906C8.0268 26.9487 10.0754 28.631 12.4723 29.6247C14.8692 30.6184 17.5069 30.8792 20.052 30.3737C22.597 29.8683 24.9351 28.6195 26.7707 26.7852C27.9924 25.5673 28.9617 24.1202 29.6231 22.5268C30.2845 20.9334 30.625 19.2253 30.625 17.4999C30.625 15.7747 30.2845 14.0665 29.6231 12.4731C28.9617 10.8798 27.9924 9.43266 26.7707 8.21479ZM25.984 14.257C23.8189 18.0246 21.6558 21.7905 19.4943 25.5546C19.3239 25.8883 19.0698 26.1722 18.757 26.3786C18.4443 26.585 18.0834 26.7069 17.7096 26.7324C17.2969 26.7785 16.88 26.6988 16.5134 26.5037C16.1469 26.3086 15.8478 26.0072 15.6556 25.6391C14.2879 23.2834 12.9309 20.912 11.5738 18.5457C10.743 17.1091 9.91579 15.669 9.09204 14.2254C8.89649 13.9012 8.78866 13.5317 8.77914 13.1533C8.76962 12.7748 8.85874 12.4003 9.03773 12.0668C9.21673 11.7332 9.47945 11.452 9.80005 11.2507C10.1207 11.0495 10.4881 10.9352 10.8662 10.919C11.2733 10.8941 11.6789 10.9875 12.034 11.1881C12.3892 11.3886 12.6786 11.6878 12.8675 12.0493C13.48 13.1056 14.082 14.162 14.684 15.2184C15.1222 15.9789 15.5446 16.7394 15.9935 17.4894C16.2789 18.0077 16.6932 18.4435 17.1964 18.7545C17.6999 19.0655 18.2749 19.2409 18.8659 19.2641C19.7637 19.3197 20.6483 19.0277 21.3365 18.4484C22.0247 17.8692 22.4635 17.0474 22.5623 16.1532C22.5623 16.0105 22.5623 15.8679 22.5939 15.794C22.5971 15.2289 22.4705 14.6706 22.2244 14.162C22.0733 13.8818 21.9855 13.572 21.9668 13.2543C21.9481 12.9366 21.9993 12.6186 22.1166 12.3228C22.2338 12.0269 22.4145 11.7603 22.6457 11.5417C22.877 11.323 23.1532 11.1576 23.4551 11.0571C23.7569 10.9566 24.0772 10.9233 24.3933 10.9597C24.7094 10.9961 25.0137 11.1013 25.2848 11.2678C25.5561 11.4343 25.7875 11.6582 25.963 11.9237C26.1384 12.1891 26.2538 12.4898 26.3007 12.8046C26.3602 13.3105 26.2486 13.8218 25.984 14.257Z" fill="white"/>
</g>
<defs>
<linearGradient id="paint0_linear_2036_128" x1="10.911" y1="6.15784" x2="27.6218" y2="35.1114" gradientUnits="userSpaceOnUse">
<stop stop-opacity="0.2"/>
<stop offset="0.79" stop-opacity="0.05"/>
</linearGradient>
<clipPath id="clip0_2036_128">
<rect width="35" height="35" fill="white"/>
</clipPath>
</defs>
</svg>
