<svg width="35" height="35" viewBox="0 0 35 35" fill="none" xmlns="http://www.w3.org/2000/svg">
<path d="M9 4.5L16.5 3.5H23L29 6L31 11.5L29.5 17L26 25L17.5 31L11.5 26.5L7 19L5 11L9 4.5Z" fill="#D9D9D9"/>
<path d="M32.8396 11.3229L31.7601 8.3915L32.5121 6.70979C32.5592 6.60367 32.5733 6.48585 32.5526 6.37163C32.5318 6.2574 32.4773 6.15205 32.3959 6.06923L30.3525 4.00605C29.9146 3.56136 29.3593 3.25033 28.7513 3.1092C28.1433 2.96807 27.5078 3.00266 26.9187 3.20894L26.3588 3.40651L23.2415 0.0293959L17.9201 0L12.5981 0.0417012L9.48419 3.44616L8.92977 3.24996C8.33693 3.04143 7.69693 3.00631 7.08484 3.14871C6.47274 3.29111 5.91396 3.60512 5.47404 4.0539L3.3842 6.15605C3.3191 6.22192 3.27541 6.30591 3.25882 6.39702C3.24223 6.48813 3.25353 6.58213 3.29122 6.66672L4.07534 8.41406L3 11.3427L6.86043 26.0215C7.22534 27.4083 8.06471 28.6233 9.23261 29.4554L16.8673 34.6297C17.1671 34.8694 17.5394 35 17.9232 35C18.307 35 18.6793 34.8694 18.9791 34.6297L26.6097 29.4479C27.7796 28.6186 28.6185 27.4022 28.9778 26.014L32.1272 13.9726L32.8396 11.3229Z" fill="url(#paint0_linear_2036_127)"/>
<path d="M18.7918 21.6936C18.59 21.6031 18.3819 21.5277 18.169 21.468H17.7937C17.5809 21.5278 17.3727 21.6032 17.1709 21.6936L16.2268 22.086L15.1604 22.5768L13.424 23.4819C13.3603 23.5018 13.3042 23.5404 13.2628 23.5927C13.2215 23.645 13.1969 23.7086 13.1924 23.7751C13.1878 23.8416 13.2034 23.9079 13.2372 23.9654C13.2709 24.0229 13.3213 24.0688 13.3816 24.0972L14.8897 25.1561C15.2087 25.384 15.5174 25.6292 15.816 25.8917L16.2405 26.2574L17.1292 27.0347L17.5319 27.3902C17.6563 27.4933 17.8129 27.5497 17.9745 27.5497C18.1361 27.5497 18.2927 27.4933 18.4172 27.3902L20.1529 25.8739L21.0826 25.1377L22.5907 24.0582C22.6505 24.0297 22.7003 23.9838 22.7335 23.9265C22.7668 23.8692 22.7818 23.8031 22.7768 23.737C22.7718 23.671 22.7469 23.608 22.7054 23.5563C22.6638 23.5047 22.6077 23.4668 22.5442 23.4477L20.8105 22.5727L19.7379 22.0812L18.7918 21.6936ZM29.4837 11.9772L29.5384 11.82C29.5411 11.6101 29.5281 11.4003 29.4994 11.1924C29.3554 10.8195 29.1675 10.4652 28.9395 10.1369L27.9585 8.69715L27.2599 7.74828L25.9452 6.10758C25.8251 5.94755 25.6949 5.79525 25.5556 5.6516H25.5282L24.9444 5.75961L22.0547 6.31609C21.7624 6.32954 21.4703 6.28684 21.1941 6.1903L19.6074 5.67758L18.4719 5.3638C18.1385 5.32893 17.8024 5.32893 17.469 5.3638L16.3307 5.681L14.744 6.19645C14.4677 6.29234 14.1756 6.33503 13.8834 6.32224L10.9971 5.77534L10.4133 5.66733H10.3859C10.246 5.81048 10.1159 5.96281 9.99626 6.1233L8.6837 7.76401C8.44078 8.07164 8.20972 8.38793 7.9905 8.71288L7.00677 10.1526L6.54327 10.9258C6.45884 11.2228 6.41425 11.5297 6.41064 11.8384L6.46533 11.9956C6.48865 12.0964 6.51857 12.1955 6.55489 12.2923L7.32944 13.1811L10.7633 16.8309C10.8774 16.9638 10.9538 17.1248 10.9845 17.2973C11.0152 17.4697 10.999 17.6472 10.9376 17.8113L10.3613 19.1416C10.234 19.4936 10.2246 19.8776 10.3347 20.2354L10.4468 20.5444C10.6313 21.0463 10.9475 21.4893 11.3621 21.8269L11.9015 22.2664C12.0419 22.3671 12.2054 22.4306 12.3769 22.4512C12.5484 22.4717 12.7223 22.4486 12.8825 22.384L14.8008 21.4659C15.1538 21.2909 15.4839 21.0733 15.7838 20.8178L17.3193 19.4321C17.3809 19.3771 17.4308 19.3103 17.466 19.2356C17.5013 19.1609 17.5211 19.0799 17.5243 18.9973C17.5271 18.915 17.5133 18.8329 17.484 18.7559C17.4546 18.6789 17.4103 18.6085 17.3534 18.5489L13.8834 16.2143C13.7521 16.1212 13.6585 15.9841 13.6198 15.8279C13.581 15.6718 13.5996 15.5068 13.6721 15.3632L15.0161 12.8372C15.0928 12.6827 15.1383 12.5146 15.1501 12.3426C15.1618 12.1705 15.1395 11.9978 15.0845 11.8343C14.9172 11.5223 14.6468 11.2781 14.3195 11.1432L10.1056 9.55716C9.80211 9.44778 9.81852 9.31105 10.1405 9.29191L12.6152 9.04649C13.0033 9.02169 13.3929 9.05627 13.7706 9.14903L15.924 9.75062C16.0768 9.79663 16.2078 9.89655 16.2926 10.0318C16.3773 10.1671 16.4101 10.3286 16.3847 10.4862L15.5391 15.1082C15.4822 15.3641 15.4681 15.6277 15.4974 15.8882C15.5316 15.9983 15.8208 16.1343 16.1373 16.2116L17.4491 16.485C17.8301 16.5554 18.2208 16.5554 18.6017 16.485L19.7817 16.2116C20.0989 16.1432 20.3846 15.9908 20.4209 15.88C20.4493 15.6196 20.4348 15.3563 20.3778 15.1007L19.5267 10.4801C19.5017 10.3225 19.5345 10.1611 19.6192 10.0259C19.7039 9.89071 19.8347 9.79073 19.9875 9.74447L22.1409 9.14083C22.5185 9.04803 22.9081 9.01345 23.2962 9.03828L25.7709 9.26867C26.095 9.29874 26.1127 9.41906 25.8078 9.53391L21.5947 11.1288C21.2671 11.2628 20.9971 11.5077 20.8317 11.8206C20.7213 12.1509 20.7459 12.5113 20.9001 12.8235L22.2461 15.3495C22.319 15.4933 22.3378 15.6584 22.2992 15.8148C22.2605 15.9713 22.167 16.1087 22.0356 16.202L18.5723 18.542C18.5161 18.6007 18.472 18.6699 18.4426 18.7456C18.4133 18.8214 18.3992 18.9022 18.4012 18.9834C18.4032 19.0647 18.4213 19.1447 18.4545 19.2189C18.4876 19.2931 18.5351 19.36 18.5942 19.4157L18.6045 19.4253L20.1419 20.811C20.4417 21.0655 20.7711 21.2829 21.123 21.4584L23.0412 22.371C23.2014 22.4358 23.3754 22.4588 23.5469 22.4377C23.7184 22.4167 23.8818 22.3523 24.0215 22.2507L24.5616 21.8098C24.9766 21.4715 25.2926 21.0275 25.4763 20.5246L25.5891 20.2156C25.6989 19.8577 25.6896 19.4738 25.5624 19.1218L24.9977 17.7894C24.9369 17.6251 24.921 17.4476 24.9516 17.2752C24.9823 17.1027 25.0584 16.9416 25.1721 16.8084L28.6059 13.1544L29.3784 12.2657C29.4196 12.1714 29.4547 12.0746 29.4837 11.9758V11.9772Z" fill="white"/>
<defs>
<linearGradient id="paint0_linear_2036_127" x1="2.99798" y1="17.4546" x2="32.8639" y2="17.4546" gradientUnits="userSpaceOnUse">
<stop stop-color="#F1562B"/>
<stop offset="0.3" stop-color="#F1542B"/>
<stop offset="0.41" stop-color="#F04D2A"/>
<stop offset="0.49" stop-color="#EF4229"/>
<stop offset="0.5" stop-color="#EF4029"/>
<stop offset="0.56" stop-color="#E83E28"/>
<stop offset="0.67" stop-color="#E13C26"/>
<stop offset="1" stop-color="#DF3C26"/>
</linearGradient>
</defs>
</svg>
