<svg width="35" height="35" viewBox="0 0 35 35" fill="none" xmlns="http://www.w3.org/2000/svg">
<g clip-path="url(#clip0_2036_125)">
<path d="M31.5947 26.0441C31.1254 26.2879 30.6414 26.5025 30.1456 26.6866C28.5755 27.271 26.9128 27.5674 25.2375 27.5616C18.7709 27.5616 13.1383 23.1184 13.1383 17.4037C13.1467 16.6385 13.3588 15.8893 13.7529 15.2333C14.147 14.5773 14.7088 14.0382 15.3804 13.6714C9.52901 13.9175 8.02515 20.0149 8.02515 23.5832C8.02515 33.7001 17.3354 34.7118 19.3451 34.7118C20.4252 34.7118 22.0521 34.3973 23.0364 34.0829L23.2141 34.0282C26.9812 32.7263 30.1925 30.1804 32.3193 26.8097C32.3811 26.7072 32.4077 26.5874 32.3948 26.4684C32.382 26.3495 32.3305 26.2381 32.2483 26.1512C32.1661 26.0643 32.0576 26.0068 31.9396 25.9874C31.8215 25.9681 31.7004 25.988 31.5947 26.0441Z" fill="url(#paint0_linear_2036_125)"/>
<path opacity="0.35" d="M31.5947 26.0441C31.1254 26.2879 30.6414 26.5025 30.1456 26.6866C28.5755 27.271 26.9128 27.5674 25.2375 27.5616C18.7709 27.5616 13.1383 23.1184 13.1383 17.4037C13.1467 16.6385 13.3588 15.8893 13.7529 15.2333C14.147 14.5773 14.7088 14.0382 15.3804 13.6714C9.52901 13.9175 8.02515 20.0149 8.02515 23.5832C8.02515 33.7001 17.3354 34.7118 19.3451 34.7118C20.4252 34.7118 22.0521 34.3973 23.0364 34.0829L23.2141 34.0282C26.9812 32.7263 30.1925 30.1804 32.3193 26.8097C32.3811 26.7072 32.4077 26.5874 32.3948 26.4684C32.382 26.3495 32.3305 26.2381 32.2483 26.1512C32.1661 26.0643 32.0576 26.0068 31.9396 25.9874C31.8215 25.9681 31.7004 25.988 31.5947 26.0441Z" fill="url(#paint1_radial_2036_125)"/>
<path d="M14.4507 32.9892C13.2338 32.2334 12.179 31.2436 11.3473 30.0772C10.3976 28.7773 9.74387 27.2853 9.432 25.7059C9.12013 24.1265 9.15767 22.4981 9.54199 20.9347C9.9263 19.3714 10.6481 17.9112 11.6567 16.6564C12.6653 15.4016 13.9362 14.3828 15.3804 13.6714C15.8179 13.4663 16.5424 13.1109 17.5131 13.1246C18.1962 13.1298 18.8687 13.293 19.4782 13.6013C20.0878 13.9096 20.6177 14.3547 21.0267 14.9018C21.5768 15.6416 21.8783 16.5366 21.888 17.4584C21.888 17.4311 25.2375 6.57593 10.9508 6.57593C4.94906 6.57593 0.0136655 12.2633 0.0136655 17.267C-0.0102069 19.9102 0.554888 22.5255 1.66791 24.923C3.49069 28.8044 6.67513 31.8814 10.6167 33.5699C14.5584 35.2585 18.9827 35.441 23.0501 34.0829C21.6251 34.5329 20.1194 34.6682 18.6371 34.4794C17.1547 34.2905 15.731 33.7821 14.4644 32.9892H14.4507Z" fill="url(#paint2_linear_2036_125)"/>
<path opacity="0.41" d="M14.4507 32.9892C13.2338 32.2334 12.179 31.2436 11.3473 30.0772C10.3976 28.7773 9.74387 27.2853 9.432 25.7059C9.12013 24.1265 9.15767 22.4981 9.54199 20.9347C9.9263 19.3714 10.6481 17.9112 11.6567 16.6564C12.6653 15.4016 13.9362 14.3828 15.3804 13.6714C15.8179 13.4663 16.5424 13.1109 17.5131 13.1246C18.1962 13.1298 18.8687 13.293 19.4782 13.6013C20.0878 13.9096 20.6177 14.3547 21.0267 14.9018C21.5768 15.6416 21.8783 16.5366 21.888 17.4584C21.888 17.4311 25.2375 6.57593 10.9508 6.57593C4.94906 6.57593 0.0136655 12.2633 0.0136655 17.267C-0.0102069 19.9102 0.554888 22.5255 1.66791 24.923C3.49069 28.8044 6.67513 31.8814 10.6167 33.5699C14.5584 35.2585 18.9827 35.441 23.0501 34.0829C21.6251 34.5329 20.1194 34.6682 18.6371 34.4794C17.1547 34.2905 15.731 33.7821 14.4644 32.9892H14.4507Z" fill="url(#paint3_radial_2036_125)"/>
<path d="M20.8353 20.3431C20.7122 20.4798 20.3705 20.6849 20.3705 21.1087C20.3705 21.4642 20.6029 21.8196 21.0267 22.1067C22.9817 23.4739 26.6867 23.2825 26.7003 23.2825C28.1578 23.2815 29.5883 22.8897 30.8428 22.1477C32.1058 21.409 33.1537 20.353 33.8827 19.0844C34.6118 17.8158 34.9965 16.3787 34.9989 14.9156C35.0399 11.8531 33.9052 9.8161 33.454 8.91379C30.542 3.2538 24.2942 8.56711e-08 17.4995 8.56711e-08C12.9006 -0.000454654 8.48647 1.80941 5.21167 5.03816C1.93687 8.26691 0.0646709 12.655 0 17.2534C0.0683573 12.2633 5.03109 8.23021 10.9372 8.23021C11.4157 8.23021 14.15 8.27123 16.6792 9.59736C18.4561 10.4803 19.9275 11.8756 20.9036 13.6031C21.7376 15.0523 21.888 16.8979 21.888 17.6362C21.888 18.3744 21.5189 19.4545 20.8216 20.3568L20.8353 20.3431Z" fill="url(#paint4_radial_2036_125)"/>
<path d="M20.8353 20.3431C20.7122 20.4798 20.3705 20.6849 20.3705 21.1087C20.3705 21.4642 20.6029 21.8196 21.0267 22.1067C22.9817 23.4739 26.6867 23.2825 26.7003 23.2825C28.1578 23.2815 29.5883 22.8897 30.8428 22.1477C32.1058 21.409 33.1537 20.353 33.8827 19.0844C34.6118 17.8158 34.9965 16.3787 34.9989 14.9156C35.0399 11.8531 33.9052 9.8161 33.454 8.91379C30.542 3.2538 24.2942 8.56711e-08 17.4995 8.56711e-08C12.9006 -0.000454654 8.48647 1.80941 5.21167 5.03816C1.93687 8.26691 0.0646709 12.655 0 17.2534C0.0683573 12.2633 5.03109 8.23021 10.9372 8.23021C11.4157 8.23021 14.15 8.27123 16.6792 9.59736C18.4561 10.4803 19.9275 11.8756 20.9036 13.6031C21.7376 15.0523 21.888 16.8979 21.888 17.6362C21.888 18.3744 21.5189 19.4545 20.8216 20.3568L20.8353 20.3431Z" fill="url(#paint5_radial_2036_125)"/>
</g>
<defs>
<linearGradient id="paint0_linear_2036_125" x1="8.02515" y1="24.1984" x2="32.415" y2="24.1984" gradientUnits="userSpaceOnUse">
<stop stop-color="#0C59A4"/>
<stop offset="1" stop-color="#114A8B"/>
</linearGradient>
<radialGradient id="paint1_radial_2036_125" cx="0" cy="0" r="1" gradientUnits="userSpaceOnUse" gradientTransform="translate(21.4915 24.3823) scale(13.0426 12.3904)">
<stop offset="0.7" stop-opacity="0"/>
<stop offset="0.9" stop-opacity="0.5"/>
<stop offset="1"/>
</radialGradient>
<linearGradient id="paint2_linear_2036_125" x1="20.8763" y1="13.6167" x2="5.65997" y2="30.2002" gradientUnits="userSpaceOnUse">
<stop stop-color="#1B9DE2"/>
<stop offset="0.2" stop-color="#1595DF"/>
<stop offset="0.7" stop-color="#0680D7"/>
<stop offset="1" stop-color="#0078D4"/>
</linearGradient>
<radialGradient id="paint3_radial_2036_125" cx="0" cy="0" r="1" gradientUnits="userSpaceOnUse" gradientTransform="translate(9.64589 27.1975) rotate(-81.3844) scale(19.603 15.8372)">
<stop offset="0.8" stop-opacity="0"/>
<stop offset="0.9" stop-opacity="0.5"/>
<stop offset="1"/>
</radialGradient>
<radialGradient id="paint4_radial_2036_125" cx="0" cy="0" r="1" gradientUnits="userSpaceOnUse" gradientTransform="translate(3.53954 6.46878) rotate(92.2906) scale(27.6931 58.9806)">
<stop stop-color="#35C1F1"/>
<stop offset="0.1" stop-color="#34C1ED"/>
<stop offset="0.2" stop-color="#2FC2DF"/>
<stop offset="0.3" stop-color="#2BC3D2"/>
<stop offset="0.7" stop-color="#36C752"/>
</radialGradient>
<radialGradient id="paint5_radial_2036_125" cx="0" cy="0" r="1" gradientUnits="userSpaceOnUse" gradientTransform="translate(32.8197 10.568) rotate(73.7398) scale(13.3023 10.8174)">
<stop stop-color="#66EB6E"/>
<stop offset="1" stop-color="#66EB6E" stop-opacity="0"/>
</radialGradient>
<clipPath id="clip0_2036_125">
<rect width="35" height="35" fill="white"/>
</clipPath>
</defs>
</svg>
