<svg width="35" height="35" viewBox="0 0 35 35" fill="none" xmlns="http://www.w3.org/2000/svg">
<g clip-path="url(#clip0_2036_129)">
<path d="M35 17.5C35 7.83502 27.165 0 17.5 0C7.83502 0 0 7.83502 0 17.5C0 27.165 7.83502 35 17.5 35C27.165 35 35 27.165 35 17.5Z" fill="white"/>
<path fill-rule="evenodd" clip-rule="evenodd" d="M28.9262 10.6228C28.875 10.4893 28.786 10.3268 28.6703 10.151C28.4388 9.79714 28.0894 9.36314 27.7022 8.95358V8.9514C27.2882 8.53517 26.8653 8.17461 26.5226 7.9365C26.3512 7.81854 26.1954 7.72508 26.0663 7.6739C26.0018 7.64715 25.9372 7.62938 25.8749 7.6249C25.8148 7.62047 25.7392 7.63157 25.6813 7.68943L17.6558 15.5059C17.5668 15.5926 17.4221 15.5926 17.3331 15.5059L9.30753 7.68943C9.24967 7.63381 9.17398 7.62271 9.11394 7.6249C9.05383 7.62938 8.98706 7.64715 8.92253 7.6739C8.79341 7.72508 8.63542 7.81854 8.46627 7.9365C8.12354 8.17461 7.70065 8.53741 7.28672 8.9514V8.95358C6.89942 9.36314 6.55002 9.79714 6.31858 10.151C6.20281 10.3268 6.11159 10.4893 6.06259 10.6228C6.03815 10.6896 6.02032 10.7564 6.01589 10.8165C6.01365 10.8766 6.0248 10.9544 6.08485 11.0123L15.0518 19.739C15.132 19.8169 15.1765 19.9237 15.1765 20.035L15.1676 30.7091C15.1676 30.7892 15.2143 30.8493 15.2544 30.8871C15.2966 30.9272 15.3523 30.9605 15.4146 30.9895C15.5392 31.0496 15.7106 31.1052 15.9131 31.152C16.3226 31.2455 16.8813 31.3122 17.5 31.3122C18.1187 31.3122 18.6774 31.2455 19.0869 31.152C19.2894 31.1052 19.4608 31.0496 19.5854 30.9895C19.6477 30.9605 19.7034 30.9249 19.7456 30.8871C19.7857 30.8493 19.8324 30.7892 19.8324 30.7091L19.8235 20.035C19.8235 19.9237 19.868 19.8169 19.9481 19.739L28.9151 11.0123C28.9752 10.9544 28.9863 10.8766 28.9841 10.8165C28.9818 10.7541 28.9618 10.6873 28.9374 10.6228H28.9262Z" fill="url(#paint0_linear_2036_129)"/>
</g>
<defs>
<linearGradient id="paint0_linear_2036_129" x1="6.01561" y1="19.9157" x2="28.7682" y2="17.9491" gradientUnits="userSpaceOnUse">
<stop offset="0.3" stop-color="#FF6A16"/>
<stop offset="0.542948" stop-color="#FF3227"/>
<stop offset="0.89" stop-color="#FF66DD"/>
</linearGradient>
<clipPath id="clip0_2036_129">
<rect width="35" height="35" fill="white"/>
</clipPath>
</defs>
</svg>
