<svg width="35" height="35" viewBox="0 0 35 35" fill="none" xmlns="http://www.w3.org/2000/svg">
<g clip-path="url(#clip0_2036_124)">
<circle cx="17.5" cy="17.5" r="10.5" fill="white"/>
<path d="M17.5 26.2461C22.3325 26.2461 26.25 22.3286 26.25 17.4961C26.25 12.6636 22.3325 8.74609 17.5 8.74609C12.6675 8.74609 8.75 12.6636 8.75 17.4961C8.75 22.3286 12.6675 26.2461 17.5 26.2461Z" fill="white"/>
<path d="M17.5 8.75001H32.6529C31.1174 6.08957 28.9085 3.88028 26.2484 2.3443C23.5882 0.808319 20.5706 -0.00021428 17.4988 4.25977e-08C14.4271 0.000214365 11.4095 0.809168 8.74956 2.34552C6.08962 3.88187 3.88106 6.09147 2.34595 8.75213L9.92241 21.875L9.92919 21.8732C9.15846 20.5442 8.75174 19.0354 8.75001 17.499C8.74828 15.9626 9.15162 14.453 9.91935 13.1222C10.6871 11.7914 11.7921 10.6865 13.123 9.91888C14.4539 9.15129 15.9636 8.74812 17.5 8.75001Z" fill="url(#paint0_linear_2036_124)"/>
<path d="M17.4999 24.4271C21.3257 24.4271 24.427 21.3258 24.427 17.5001C24.427 13.6744 21.3257 10.573 17.4999 10.573C13.6742 10.573 10.5729 13.6744 10.5729 17.5001C10.5729 21.3258 13.6742 24.4271 17.4999 24.4271Z" fill="#1A73E8"/>
<path d="M25.077 21.877L17.5006 34.9999C20.5723 35.0003 23.59 34.192 26.2503 32.6562C28.9105 31.1204 31.1196 28.9113 32.6552 26.251C34.1909 23.5907 34.9991 20.5729 34.9986 17.5012C34.998 14.4294 34.1887 11.412 32.6521 8.7522H17.4993L17.4974 8.75898C19.0338 8.75601 20.5438 9.15814 21.8752 9.92483C23.2067 10.6915 24.3124 11.7956 25.0811 13.1259C25.8497 14.4562 26.254 15.9656 26.2533 17.502C26.2526 19.0384 25.8469 20.5474 25.077 21.877Z" fill="url(#paint1_linear_2036_124)"/>
<path d="M9.92291 21.8773L2.34645 8.75439C0.810188 11.4144 0.00133519 14.432 0.00122072 17.5037C0.00110624 20.5755 0.809734 23.5931 2.3458 26.2532C3.88186 28.9133 6.09121 31.1221 8.7517 32.6575C11.4122 34.193 14.43 35.0008 17.5018 35L25.0782 21.8771L25.0734 21.8721C24.3077 23.2042 23.2044 24.3108 21.8748 25.0805C20.5451 25.8501 19.036 26.2557 17.4996 26.2562C15.9632 26.2567 14.4539 25.8522 13.1237 25.0834C11.7935 24.3146 10.6895 23.2087 9.92291 21.8773Z" fill="url(#paint2_linear_2036_124)"/>
</g>
<defs>
<linearGradient id="paint0_linear_2036_124" x1="2.34595" y1="10.9375" x2="32.6529" y2="10.9375" gradientUnits="userSpaceOnUse">
<stop stop-color="#D93025"/>
<stop offset="1" stop-color="#EA4335"/>
</linearGradient>
<linearGradient id="paint1_linear_2036_124" x1="15.1098" y1="34.7659" x2="30.2633" y2="8.5193" gradientUnits="userSpaceOnUse">
<stop stop-color="#FCC934"/>
<stop offset="1" stop-color="#FBBC04"/>
</linearGradient>
<linearGradient id="paint2_linear_2036_124" x1="19.3944" y1="33.9073" x2="4.24089" y2="7.66065" gradientUnits="userSpaceOnUse">
<stop stop-color="#1E8E3E"/>
<stop offset="1" stop-color="#34A853"/>
</linearGradient>
<clipPath id="clip0_2036_124">
<rect width="35" height="35" fill="white"/>
</clipPath>
</defs>
</svg>
